# xmcd
#
# Track frame offsets: 
#        182
#        14180
#        26265
#        39677
#        55037
#        70065
#        84627
#        98837
#        113430
#        128177
#        143027
#        157635
#        172125
#        185632
#        200327
#        211920
#        223765
#        235255
#        247832
#        261972
#        277492
#        291170
#        303872
#
# Disc length: 4228 seconds
#
# Revision: 1
# Processed by: cddbd v1.5.1PL0 Copyright (c) Steve Scherf et al.
# Submitted via: ExactAudioCopy v0.95a5
#
DISCID=4f108217
DTITLE=Central Mississippi Blues - The Jackson Area (1928-1935)
DYEAR=1930
DGENRE=Blues
TTITLE0=Willie Harris - West Side Blues
TTITLE1=Willie Harris - What Makes A Tom Cat Blue?
TTITLE2=Willie Harris - Lonesome Midnight Dream
TTITLE3=Willie Harris - Never Drive A Stranger From Your Door
TTITLE4=Mississippi Bracy - You Scolded Me An Drove Me From Your Door
TTITLE5=Mississippi Bracy - Cherry Ball
TTITLE6=Mississippi Bracy - Stered Gal
TTITLE7=Mississippi Bracy - I´ll Overcome Someday
TTITLE8="Big Road" Webster Taylor - World In A Jug
TTITLE9="Big Road" Webster Taylor - Sunny Southern Blues
TTITLE10=Arthur Pettis - Two Time Blues
TTITLE11=Arthur Pettis - Out on Santa Fe Blues
TTITLE12=Arthur Pettis - That Won't Do
TTITLE13=Arthur Pettis - Good Boy Blues
TTITLE14=Arthur Pettis - Quarrelin' Mama Blues
TTITLE15=Arthur Pettis - Revenue Man Blues
TTITLE16=The Mississippi Moaner (Isaiah Nettles) - Mississippi Moan
TTITLE17=The Mississippi Moaner (Isaiah Nettles) - It´s Cold in China 
TTITLE17=Blues
TTITLE18=Louise Johnson - All Night Long Blues
TTITLE19=Louise Johnson - Long Ways From Home
TTITLE20=Louise Johnson - On The Wall
TTITLE21=Louise Johnson - By The Moon And Stars
TTITLE22=Louise Johnson - All Night Long Blues
EXTD=
EXTT0=
EXTT1=
EXTT2=
EXTT3=
EXTT4=
EXTT5=
EXTT6=
EXTT7=
EXTT8=
EXTT9=
EXTT10=
EXTT11=
EXTT12=
EXTT13=
EXTT14=
EXTT15=
EXTT16=
EXTT17=
EXTT18=
EXTT19=
EXTT20=
EXTT21=
EXTT22=
PLAYORDER=
